<?xml version="1.0" encoding="iso-8859-1"?>
<!-- Generator: Adobe Illustrator 21.0.0, SVG Export Plug-In . SVG Version: 6.00 Build 0)  -->
<svg version="1.1" id="Layer_1" xmlns="http://www.w3.org/2000/svg" xmlns:xlink="http://www.w3.org/1999/xlink" x="0px" y="0px"
	 viewBox="0 0 1000 1000" style="enable-background:new 0 0 1000 1000;" xml:space="preserve">
<g>
	<path style="fill:#80726E;" d="M705.686,534.102c-8.987-32.501-27.394-63.053-54.748-82.772
		c-96.905-69.857-184.313,45.958-191.709,136.369c-5.174,63.236,17.02,126.495,51.886,179.504
		c-28.088,4.326-55.544,12.725-81.245,24.853c-3.621,1.709-7.299,3.582-10.646,5.827c-0.114,0.036-0.227,0.068-0.342,0.109
		c-6.688,2.361-13.76,4.447-17.953,10.028c-1.381,1.838-2.503,5.771-2.421,8.069c0.083,2.297,2.802,6.251,5.063,5.838
		c-3.867,4.993-6.293,11.601-2.642,16.754c-1.337,2.989,1.366,7.625,3.363,10.22s5.468,3.967,8.699,3.44
		c0.27,3.383,2.946,6.2,6.046,7.583c3.099,1.384,6.579,1.589,9.972,1.687c10.26,0.296,20.541-0.204,30.726-1.484
		c46.946,6.914,95.338-6.573,139.254-25.416c13.491-5.788,26.955-12.209,38.021-21.855c11.065-9.646,19.611-22.981,20.639-37.625
		c0.794-11.322-2.865-22.407-5.465-33.455c-2.6-11.048-4.064-23.122,0.797-33.378c4.86-10.256,18.19-17.14,28.038-11.498
		c6.58-22.61,10.268-46.062,10.943-69.601c6.202,2.395,12.404,4.79,18.606,7.185C714.791,601.028,714.672,566.604,705.686,534.102z"
		/>
	<path style="fill:#9B8A84;" d="M909.241,518.701c-8.92-2.72-17.85-5.45-26.771-8.17c-4.81,32.76-24.54,62.24-50.479,82.83
		c-25.94,20.58-57.7,32.85-90.1,39.68c-31.341,6.6-63.5,8.23-95.36,5.47c-45.09-3.89-89.59-16.59-130.33-36.42
		c-10.68-5.2-21.12-10.88-31.28-16.99c-56-33.64-103.95-80.42-141.89-133.75c-25.3-35.54-47.09-77.38-42.2-120.72
		c4.21-37.22,28.74-65.47,43.67-98.46c12.96-28.66,40.83-44.01,67.65-58.58c65.609-35.65,141.149-52.75,215.71-49.46
		c42.47,1.87,100.649,15.01,127.28,35.99c0,0-13.211-1.7-22.601-0.81c59.97,43.79,111.07,84.4,150.73,147.18
		C922.931,369.271,939.741,451.001,909.241,518.701z"/>
	<path style="fill:#91827D;" d="M867.128,388.491c-3.438,19.94-16.736,37.87-30.024,55.06c-9.379,12.14-19.499,24.7-35.137,31.81
		c-19.162,8.72-42.706,7.6-64.805,8.6c-22.108,1.01-46.895,5.94-57.524,21.21c9.051,16.85-7.039,35.15-23.005,48.46
		c-15.965,13.3-34.231,29.18-29.937,47.16c3.101,12.99,17.563,26.6,10.813,37.72c-43.418-3.89-86.269-16.59-125.497-36.42
		c-10.284-5.2-20.337-10.88-30.121-16.99c3.833-22.25,10.333-44.25,13.674-66.57c9.87-65.92-8.868-134.28-52.393-191.14
		c-16.523-21.59-37.102-42.89-39.701-68c-1.444-13.96,3.621-34.89,14.521-46.51c12.72-13.57,43.216-18.37,62.608-22.31
		c42.562-8.65,86.596-16.11,130.216-11.8c68.31,6.76,126.315,41.12,180.75,74.28c-15.243,1.35-30.496,2.7-45.739,4.05
		c30.746,15.43,61.936,31.15,85.941,52.74C855.775,331.431,872.03,360.081,867.128,388.491z"/>
	<path style="fill:#8C7D79;" d="M542.098,346.772c21.465,52.877,39.901,110.997,84.776,146.251
		c-2.957,1.119-15.983,7.684-18.94,8.802c-3.831,8.386,36,9,36,9c4.508,9.808-32.405,44.294-40.406,83.442
		c-20.338,99.517-42.16,211.404-131.594,259.558c2.724-75.522-16.654-160.656-29.495-235.129
		c-11.477-66.558-29.161-134.172-17.527-200.702c6.471-37.003,22.196-72.292,45.104-102.041
		c9.671-12.56,22.918-28.762,40.227-19.371C526.639,305.479,535.529,330.587,542.098,346.772z"/>
	<path style="fill:#D5BDB2;" d="M534.234,189.429c7.913,13.634,15.952,27.601,18.912,43.084c2.959,15.483-0.072,33.042-11.62,43.773
		c3.972-0.056,7.216,3.628,7.992,7.523c0.776,3.895-0.328,7.9-1.571,11.673c-10.289,31.233-31.036,58.919-58.124,77.564
		c-8.77-25.073-33.245-40.581-55.945-54.375c-20.738-12.602-64.726-37.58-44.582-66.913c18.205-26.511,57.281-43.848,86.907-52.957
		c9.395-2.889,18.986-5.141,28.688-6.715C508.244,191.544,532.701,186.788,534.234,189.429z"/>
	<path style="fill:#AF9B93;" d="M571.982,536.11c-8.635-21.719-28.552,2.978-47.512,6.641
		c-31.536,6.094-62.985,12.728-94.472,19.091c-5.499,1.111-11.152,2.285-15.845,5.458c-7.704,5.208-11.406,14.757-14.251,23.824
		c-0.311,0.993-0.604,1.991-0.904,2.987c-10.73-7.305-22.85-12.907-34.906-16.814c-22.258-7.213-47.938-10.183-67.716,2.626
		c-1.116,0.723-2.189,1.502-3.24,2.306c-2.518-5.96-5.884-11.427-11.064-14.929c-4.692-3.173-10.345-4.347-15.844-5.458
		c-31.487-6.363-62.936-12.997-94.472-19.091c-18.96-3.664-37.329-28.36-45.964-6.641c-17.093,42.991-4.629,124.688,7.524,167.373
		c8.94,31.405,21.46,61.715,37.241,90.081c3.17,5.7,6.554,12.021,10.271,18.382c12.338,21.109,28.37,42.668,52.618,43.485
		c37.313,1.256,55.829-45.11,64.529-76.003c0.216-0.768,0.417-1.539,0.628-2.308c12.719,8.212,27.253,14.252,40.144,19.303
		c-2.141-9.292-4.281-18.584-6.422-27.875c14.34,17.749,35.537,29.369,57.761,31.662c-1.605-12.481,0.326-24.725,4.111-36.655
		c1.227,5.325,2.571,10.62,4.051,15.874c8.7,30.893,27.215,77.259,64.529,76.003c24.247-0.816,40.28-22.375,52.617-43.485
		c3.719-6.361,7.102-12.682,10.272-18.382c15.78-28.366,28.3-58.676,37.241-90.081C575.062,660.798,589.074,579.101,571.982,536.11z
		"/>
	<path style="fill:#9B8A84;" d="M232.296,666.82c16.344,25.924,48.872,49.192,75.845,63.741c-5.209-12.386,6.187-39.1,7.107-52.506
		c23.215,15.592,31.621,43.63,62.282,62.188c-2.421-29.047,15.774-50.87,34.694-69.39c4.212-4.123,31.652,9.47,32.274,15.33
		c10.489-17.75,29.979-50.266,32.986-70.755c3.009-20.489-2.777-45.003-21.557-53.73c-13.476-6.262-29.207-2.516-43.732,0.617
		c-27.772,5.991-56.048,9.309-84.38,11.15c-25.568,1.662-46.26-16.977-71.314-11.537
		C202.882,573.571,208.898,629.705,232.296,666.82z"/>
	<path style="fill:#D5BDB2;" d="M138.658,187.008c-7.912,13.634-15.952,27.602-18.911,43.085s0.071,33.042,11.619,43.772
		c-3.971-0.056-7.215,3.628-7.992,7.523c-0.776,3.896,0.329,7.9,1.571,11.673c10.289,31.233,31.037,58.92,58.124,77.564
		c8.771-25.072,33.245-40.581,55.945-54.374c20.738-12.602,64.727-37.58,44.583-66.913c-18.205-26.511-57.281-43.848-86.907-52.957
		c-9.395-2.889-18.986-5.141-28.688-6.716C164.649,189.123,140.192,184.368,138.658,187.008z"/>
	<path style="fill:#BCA69B;" d="M610.711,513.062c-10.222,1.138-20.859-4.614-25.583-13.834c6.43-0.769,12.858-1.537,19.288-2.305
		c-31.408-30.676-52.692-71.738-59.752-115.272c-4.405-27.169-11.521-55.267-18.979-81.749
		c-10.676-37.906-30.534-69.857-65.118-88.147c-16.03-8.477-33.551-13.529-51.275-17.161c-46.193-9.465-103.33-5.61-118.663-3.011
		c-17.831,3.023-49.385,19.764-65.414,28.24c-34.585,18.29-62.512,50.241-73.188,88.147c-7.458,26.482-6.506,46.511-10.911,73.68
		c-7.059,43.534-28.344,84.596-59.752,115.272c6.43,0.768,12.859,1.536,19.289,2.305c-4.725,9.22-15.361,14.972-25.584,13.834
		C128,564.118,179.982,582.017,252.468,595.01c24.162,4.331,37.113,22.522,90.367,20.978c55.673-1.614,74.587-27.607,101.664-33.081
		C513.729,568.912,559.979,561.997,610.711,513.062z"/>
	<path style="fill:#AF9B93;" d="M271.391,836.125c4.917,1.135,9.926,2.689,13.721,6.015c3.796,3.326,6.078,8.835,4.305,13.56
		c-1.624,4.325-6.224,6.96-10.802,7.578c-4.579,0.618-9.201-0.42-13.704-1.451c-2.027,6.471-8.006,11.521-14.726,12.439
		c-6.719,0.917-13.833-2.346-17.521-8.037c-19.732,16.829-35.063,2.306-35.063,2.306c-9.683,9.682-35.102,4.47-18.43-12.665
		c13.041-13.403,36.015-19.722,53.889-21.797C245.83,832.589,258.86,833.232,271.391,836.125z"/>
	<path style="fill:#AF9B93;" d="M509.598,840.858c4.751,1.701,9.544,3.828,12.925,7.574c3.382,3.746,5.007,9.484,2.694,13.969
		c-2.117,4.106-6.992,6.188-11.611,6.267c-4.62,0.08-9.089-1.49-13.441-3.039c-2.769,6.19-9.295,10.51-16.075,10.637
		s-13.465-3.943-16.464-10.025c-21.561,14.413-35.093-1.799-35.093-1.799c-10.745,8.487-35.383,0.347-16.827-14.727
		c14.515-11.792,38.068-15.388,56.063-15.366C484.623,834.365,497.489,836.524,509.598,840.858z"/>
	<path style="fill:#AF9B93;" d="M910.626,517.158c-8.986-32.501-27.394-63.053-54.748-82.772
		c-96.904-69.857-184.312,45.958-191.709,136.368c-5.174,63.236,17.021,126.495,51.886,179.504
		c-28.087,4.325-55.544,12.725-81.244,24.853c-3.622,1.709-7.3,3.582-10.646,5.827c-0.114,0.036-0.226,0.068-0.341,0.109
		c-6.688,2.361-13.76,4.447-17.953,10.028c-1.381,1.838-2.503,5.771-2.421,8.068c0.082,2.298,2.801,6.251,5.063,5.838
		c-3.868,4.993-6.293,11.601-2.642,16.754c-1.337,2.988,1.366,7.625,3.362,10.219c1.997,2.595,5.468,3.968,8.699,3.441
		c0.271,3.383,2.947,6.2,6.046,7.583c3.1,1.384,6.579,1.589,9.972,1.687c10.26,0.296,20.542-0.204,30.726-1.484
		c46.946,6.914,95.338-6.573,139.255-25.416c13.49-5.788,26.955-12.209,38.021-21.855c11.066-9.646,19.611-22.981,20.639-37.625
		c0.794-11.322-2.864-22.407-5.465-33.455c-2.6-11.048-4.063-23.122,0.797-33.378c4.861-10.256,18.19-17.14,28.039-11.498
		c6.58-22.61,10.267-46.062,10.942-69.601c6.202,2.395,12.405,4.79,18.607,7.185C919.733,584.085,919.613,549.66,910.626,517.158z"
		/>
	<path style="fill:#9B8A84;" d="M334.767,557.088c10.316-2.063,34.695-31.467,34.695-45.991c0-14.523-16.138-39.536-49.219-37.922
		s-40.343,42.763-36.309,57.287S322.664,559.509,334.767,557.088z"/>
	<path style="fill:#726662;" d="M360.586,513.518c0,0-28.239,33.081-23.398,35.501S360.586,513.518,360.586,513.518z"/>
	<path style="fill:#726662;" d="M289.13,531.29c0,0,40.777,15.137,37.728,19.609C323.809,555.37,289.13,531.29,289.13,531.29z"/>
	<path style="fill:#726662;" d="M263.597,554.541c4.747,4.412,10.102,7.978,15.867,10.471c5.738,2.54,11.868,3.99,17.984,4.365
		c6.12,0.303,12.273-0.45,18.072-2.294c5.79-1.858,11.257-4.667,15.993-8.401l1.565-1.233l1.824,0.875
		c5.918,2.842,12.353,4.639,18.922,5.319c3.283,0.354,6.604,0.453,9.911,0.237c3.309-0.212,6.597-0.73,9.84-1.475
		c3.236-0.774,6.418-1.826,9.417-3.229c3.017-1.366,5.866-3.099,8.362-5.271c5.015-4.242,8.663-10.488,9.038-17.516
		c0.297,1.73,0.308,3.519,0.132,5.298c-0.204,1.777-0.621,3.541-1.221,5.251c-1.215,3.413-3.188,6.59-5.674,9.306
		c-2.508,2.691-5.467,4.943-8.629,6.794c-3.184,1.829-6.574,3.212-10.044,4.332c-3.474,1.126-7.079,1.83-10.714,2.23
		c-3.636,0.394-7.313,0.483-10.973,0.214c-7.312-0.564-14.554-2.465-21.185-5.713l3.389-0.357
		c-5.429,4.218-11.684,7.326-18.274,9.085c-6.581,1.774-13.493,2.348-20.219,1.425c-6.73-0.851-13.18-3.176-18.912-6.531
		C272.364,564.322,267.325,559.859,263.597,554.541z"/>
	<path style="fill:#726662;" d="M302.211,583.464c5.592,2.145,11.064,3.676,16.591,4.437c5.511,0.773,11.027,0.801,16.41,0.029
		c5.383-0.778,10.668-2.352,15.739-4.641c5.089-2.283,9.911-5.284,14.683-8.906c-2.713,5.373-7.086,9.916-12.207,13.337
		c-5.139,3.416-11.099,5.718-17.3,6.598c-6.2,0.887-12.564,0.351-18.454-1.486C311.799,590.983,306.327,587.852,302.211,583.464z"/>
	
		<ellipse transform="matrix(0.6267 -0.7792 0.7792 0.6267 -160.2513 477.8672)" style="fill:#9B8A84;" cx="418.68" cy="406.206" rx="24.215" ry="18.712"/>
	<path style="fill:#21150E;" d="M432.014,410.675c-0.57,1.14-1.25,2.27-2.05,3.35c-0.19,0.26-0.391,0.52-0.601,0.78
		c-0.109,0.14-0.22,0.28-0.35,0.41c-1.38,1.66-2.95,3.05-4.61,4.15c-5.659,3.8-12.37,4.28-16.85,0.67
		c-5.9-4.74-5.71-14.79,0.44-22.43c6.14-7.63,15.909-9.98,21.81-5.23C434.684,396.305,435.394,403.856,432.014,410.675z"/>
	<path style="fill:#AF9B93;" d="M235.279,307.788c11.046-3.521,22.092-7.042,33.138-10.564c-4.088,15.186,1.063,31.668,10.056,44.57
		c8.992,12.902,21.487,22.88,33.799,32.665c-0.018-17.035,10.513-33.642,25.928-40.891c6.004,4.267,10.775,10.248,13.601,17.05
		c18.188-10.222,37.024-21.025,48.816-38.237s14.139-42.821-0.439-57.746c9.343,3.388,18.687,6.776,28.029,10.164
		c-14.816-24.124-39.927-41.686-67.671-47.324c-26.106-5.307-61.64-0.711-81.894,18.327
		C259.033,254.232,242.657,282.204,235.279,307.788z"/>
	<path style="fill:#726662;" d="M389.234,510.462c3.182-1.34,6.369-2.67,9.567-3.975l9.644-3.792l9.729-3.574l9.786-3.419
		c13.09-4.444,26.364-8.335,39.721-11.902c13.393-3.43,26.874-6.527,40.462-9.071l10.205-1.815l10.231-1.657l10.264-1.431
		c3.427-0.433,6.855-0.845,10.285-1.241c-3.404,0.583-6.81,1.152-10.217,1.699l-10.191,1.817l-10.174,1.899l-10.143,2.048
		c-13.506,2.812-26.955,5.887-40.281,9.441c-13.361,3.417-26.594,7.322-39.745,11.484l-9.844,3.187l-9.797,3.336l-9.771,3.422
		L389.234,510.462z"/>
	<path style="fill:#726662;" d="M395.271,520.313c3.026-1.01,6.059-2.008,9.1-2.982l9.175-2.757l9.251-2.496l9.305-2.299
		c12.443-2.922,25.04-5.176,37.692-6.998c12.673-1.682,25.409-2.923,38.178-3.497l9.579-0.316l9.581-0.116l9.578,0.155
		c3.191,0.11,6.381,0.241,9.568,0.388c-3.192,0.042-6.382,0.07-9.57,0.075l-9.563,0.239l-9.555,0.363l-9.543,0.555
		c-12.715,0.849-25.403,2.072-38.014,3.883c-12.629,1.672-25.173,3.943-37.641,6.575l-9.334,2.06l-9.293,2.251l-9.267,2.376
		L395.271,520.313z"/>
	<path style="fill:#726662;" d="M406.742,529.018c5.656-0.246,11.317-0.331,16.98-0.425l8.494,0.009l8.495,0.102
		c11.327,0.193,22.646,0.759,33.947,1.562c11.298,0.844,22.58,1.927,33.815,3.381l8.419,1.137l8.405,1.229
		c5.588,0.919,11.176,1.831,16.736,2.902c-2.813-0.334-5.62-0.685-8.425-1.054l-8.428-0.999l-8.427-0.982l-8.436-0.896
		c-11.252-1.137-22.511-2.172-33.788-2.975c-11.274-0.845-22.564-1.454-33.862-1.966l-8.476-0.34l-8.48-0.256l-8.483-0.24
		C412.402,529.162,409.573,529.097,406.742,529.018z"/>
	<path style="fill:#726662;" d="M269.956,510.462l-9.731-3.544l-9.771-3.422l-9.796-3.336l-9.845-3.187
		c-13.151-4.162-26.384-8.067-39.745-11.484c-13.326-3.554-26.775-6.629-40.28-9.441l-10.143-2.048l-10.174-1.899l-10.192-1.817
		c-3.407-0.547-6.813-1.115-10.217-1.699c3.43,0.396,6.858,0.808,10.286,1.241l10.264,1.431l10.23,1.657l10.206,1.815
		c13.587,2.544,27.068,5.641,40.461,9.071c13.356,3.567,26.631,7.458,39.721,11.902l9.786,3.419l9.729,3.574l9.645,3.792
		C263.586,507.792,266.774,509.121,269.956,510.462z"/>
	<path style="fill:#726662;" d="M263.918,520.313l-9.228-2.54l-9.267-2.376l-9.292-2.251l-9.335-2.06
		c-12.467-2.632-25.011-4.903-37.641-6.575c-12.609-1.812-25.299-3.034-38.014-3.883l-9.543-0.555l-9.555-0.363l-9.563-0.239
		c-3.188-0.005-6.379-0.033-9.571-0.075c3.188-0.146,6.377-0.278,9.568-0.388l9.578-0.155l9.581,0.116l9.579,0.316
		c12.769,0.573,25.505,1.814,38.178,3.497c12.653,1.822,25.249,4.076,37.693,6.998l9.304,2.299l9.252,2.496l9.174,2.757
		C257.86,518.305,260.892,519.303,263.918,520.313z"/>
	<path style="fill:#726662;" d="M252.447,529.018c-2.831,0.079-5.66,0.144-8.488,0.187l-8.484,0.24l-8.479,0.256l-8.477,0.34
		c-11.297,0.512-22.588,1.122-33.862,1.966c-11.277,0.803-22.536,1.838-33.787,2.975l-8.436,0.896l-8.427,0.982l-8.429,0.999
		c-2.805,0.37-5.612,0.72-8.424,1.054c5.56-1.071,11.147-1.982,16.736-2.902l8.404-1.229l8.42-1.137
		c11.234-1.454,22.517-2.538,33.814-3.381c11.302-0.803,22.621-1.369,33.948-1.562l8.494-0.102l8.494-0.009
		C241.129,528.687,246.79,528.773,252.447,529.018z"/>
	
		<ellipse transform="matrix(0.7792 -0.6267 0.6267 0.7792 -200.1261 244.2833)" style="fill:#9B8A84;" cx="246.68" cy="406.206" rx="18.712" ry="24.215"/>
	<path style="fill:#21150E;" d="M262.104,410.186c0,1.01-0.09,1.99-0.28,2.94c-0.109,0.57-0.25,1.13-0.439,1.67
		c-0.69,2.06-1.88,3.87-3.57,5.23c-5.91,4.76-15.68,2.42-21.819-5.22c-6.15-7.64-6.341-17.68-0.44-22.43s15.67-2.4,21.81,5.23
		C260.514,401.516,262.094,406.046,262.104,410.186z"/>
	<path style="fill:#BCA69B;" d="M550.304,653.371c-2.464,19.445-8.614,38.207-14.732,56.828
		c-5.771-3.803-11.543-7.606-17.314-11.409c7.901,19.406,4.722,41.912-3.867,61.023c-8.59,19.111-22.122,35.5-35.493,51.633
		c-0.791-5.718-1.582-11.436-2.373-17.153c-11.136,7.192-22.271,14.384-33.406,21.576c3.674-10.992,3.319-23.282-0.981-34.044
		c25.695-12.869,43.15-40.745,43.506-69.48c2.889,2.821,5.777,5.643,8.666,8.465c-2.198-2.147,15.506-40.932,17.233-45.528
		c5.943-15.809,11.85-31.632,17.719-47.469c3.161-8.53,9.874-41.409,17.727-21.469C552.619,620.649,552.2,638.4,550.304,653.371z"/>
	<path style="fill:#BCA69B;" d="M163.117,734.818c4.666-5.149,9.332-10.298,13.999-15.447
		c-1.694,39.721,22.504,79.336,58.617,95.963c-2.387-18.991-8.44-37.515-17.729-54.25c7.428,2.446,14.854,4.892,22.281,7.338
		c-14.958-19.011-27.536-39.893-37.349-62.003c-2.458-5.539-4.796-11.242-8.639-15.927c-3.844-4.685-9.542-8.287-15.595-7.99
		c-6.053,0.296-11.935,5.531-11.484,11.574c-0.553-7.411-12.251-20.699-15.364-28.259c-2.638-6.405-4.303-15.012-9.087-20.024
		C141.487,674.324,153.459,708.296,163.117,734.818z"/>
	<path style="fill:#BCA69B;" d="M725.125,486.401c-20.329,22.005-30.925,52.694-28.502,82.554c3.391-3.259,6.781-6.519,10.171-9.778
		c-2.808,26.117-5.6,52.699-0.608,78.488c4.992,25.788,19.031,51.135,42.273,63.373c-8.241-45.711-2.733-93.811,15.63-136.476
		c-6.76,3.393-13.52,6.786-20.279,10.179c-7.972-23.771-5.441-50.858,6.795-72.742c5.78-10.337,13.691-19.439,22.993-26.757
		c4.955-3.899,23.774-11.188,13.989-19.679c-6.66-5.778-24.789,4.292-31.35,7.575C744.597,468.963,733.963,476.835,725.125,486.401z
		"/>
	<path style="fill:#FFFFFF;" d="M429.014,415.215c-1.38,1.66-2.95,3.05-4.61,4.15l-3.47-5.54l3-2L429.014,415.215z"/>
	<path style="fill:#FFFFFF;" d="M432.014,410.675c-0.57,1.14-1.25,2.27-2.05,3.35l-4.03-3.2l1-1L432.014,410.675z"/>
	<path style="fill:#FFFFFF;" d="M261.384,414.796c-0.69,2.06-1.88,3.87-3.57,5.23l-3.88-6.2l3-2L261.384,414.796z"/>
	<path style="fill:#FFFFFF;" d="M262.104,410.186c0,1.01-0.09,1.99-0.28,2.94l-2.89-2.3l1-1L262.104,410.186z"/>
</g>
</svg>
